<svg width="44" height="40" viewBox="0 0 44 40" fill="none" xmlns="http://www.w3.org/2000/svg">
<path d="M41.2934 0H3.04011C1.72921 0 0.666748 0.967414 0.666748 2.16105V36.9928C0.666748 38.1859 1.72921 39.1533 3.04011 39.1533H23.6341V23.9912H18.0304V18.0823H23.6341V13.7243C23.6341 8.66702 27.0263 5.91378 31.9809 5.91378C34.3543 5.91378 36.3938 6.0742 36.9886 6.14653V11.4317L33.5522 11.4333C30.8575 11.4333 30.3362 12.5992 30.3362 14.31V18.0829H36.7623L35.9256 23.9917H30.3362V39.1533H41.294C42.6043 39.1533 43.6667 38.1859 43.6667 36.9923V2.16105C43.6667 0.967414 42.6043 0 41.2934 0Z" fill="#F5F5F5"/>
</svg>
