<svg width="43" height="40" viewBox="0 0 43 40" fill="none" xmlns="http://www.w3.org/2000/svg">
<path d="M21.5 14.915C20.4875 14.9153 19.4979 15.189 18.6562 15.7015C17.8145 16.2139 17.1586 16.9421 16.7714 17.7939C16.3842 18.6458 16.2831 19.583 16.4808 20.4872C16.6786 21.3914 17.1664 22.2218 17.8824 22.8736C18.5985 23.5254 19.5108 23.9692 20.5038 24.1489C21.4969 24.3286 22.5262 24.2362 23.4616 23.8833C24.397 23.5305 25.1964 22.933 25.7589 22.1664C26.3214 21.3998 26.6216 20.4986 26.6216 19.5767C26.6206 18.3403 26.0806 17.1548 25.1203 16.2808C24.16 15.4067 22.8578 14.9154 21.5 14.915ZM33.4699 11.3317C33.2093 10.7303 32.8157 10.1841 32.3136 9.7269C31.8115 9.26972 31.2116 8.91136 30.5511 8.67404C28.5355 7.94953 23.7364 8.11208 21.5 8.11208C19.2636 8.11208 14.4693 7.94341 12.4479 8.67404C11.7874 8.91136 11.1875 9.26972 10.6854 9.7269C10.1833 10.1841 9.78974 10.7303 9.52911 11.3317C8.73438 13.1671 8.91194 17.5412 8.91194 19.5758C8.91194 21.6104 8.73438 25.9793 9.53295 27.8207C9.79358 28.4221 10.1872 28.9684 10.6892 29.4256C11.1913 29.8827 11.7913 30.2411 12.4518 30.4784C14.4674 31.2029 19.2665 31.0404 21.5038 31.0404C23.7412 31.0404 28.5336 31.2091 30.555 30.4784C31.2155 30.2411 31.8154 29.8827 32.3175 29.4256C32.8196 28.9684 33.2131 28.4221 33.4738 27.8207C34.2752 25.9854 34.0909 21.6112 34.0909 19.5767C34.0909 17.5421 34.2752 13.174 33.4738 11.3326L33.4699 11.3317ZM21.5 26.7431C19.9434 26.7431 18.4217 26.3228 17.1274 25.5354C15.8331 24.7479 14.8243 23.6287 14.2286 22.3192C13.6329 21.0097 13.477 19.5687 13.7807 18.1786C14.0844 16.7884 14.834 15.5115 15.9347 14.5092C17.0354 13.507 18.4378 12.8244 19.9645 12.5479C21.4913 12.2714 23.0738 12.4133 24.5119 12.9557C25.9501 13.4981 27.1793 14.4167 28.0441 15.5952C28.9089 16.7737 29.3705 18.1593 29.3705 19.5767C29.3718 20.5181 29.1691 21.4505 28.774 22.3205C28.3789 23.1905 27.7992 23.981 27.0681 24.6467C26.337 25.3124 25.4689 25.8402 24.5134 26.2C23.5579 26.5597 22.5339 26.7443 21.5 26.7431ZM29.695 13.7823C29.3316 13.7825 28.9763 13.6845 28.6741 13.5008C28.3718 13.3171 28.1362 13.056 27.997 12.7503C27.8578 12.4447 27.8213 12.1083 27.8921 11.7838C27.9629 11.4592 28.1377 11.1611 28.3946 10.9271C28.6515 10.693 28.9789 10.5336 29.3352 10.469C29.6916 10.4044 30.0611 10.4375 30.3968 10.5641C30.7325 10.6906 31.0195 10.905 31.2214 11.1801C31.4233 11.4552 31.5311 11.7787 31.5311 12.1096C31.5321 12.3293 31.4855 12.547 31.3938 12.7503C31.3022 12.9536 31.1674 13.1384 30.9972 13.2941C30.827 13.4499 30.6246 13.5735 30.4018 13.6578C30.179 13.7422 29.9401 13.7857 29.6988 13.7858L29.695 13.7823ZM38.3929 0H4.60714C3.38525 0 2.21341 0.441972 1.3494 1.22869C0.485394 2.0154 0 3.08242 0 4.195L0 34.9583C0 36.0709 0.485394 37.1379 1.3494 37.9246C2.21341 38.7114 3.38525 39.1533 4.60714 39.1533H38.3929C39.6147 39.1533 40.7866 38.7114 41.6506 37.9246C42.5146 37.1379 43 36.0709 43 34.9583V4.195C43 3.08242 42.5146 2.0154 41.6506 1.22869C40.7866 0.441972 39.6147 0 38.3929 0ZM36.7496 25.3448C36.6258 27.5847 36.0643 29.5695 34.2685 31.2003C32.4727 32.8311 30.2948 33.3529 27.8377 33.4595C25.3028 33.5897 17.7029 33.5897 15.1681 33.4595C12.708 33.3468 10.536 32.8346 8.73725 31.2003C6.93855 29.566 6.37321 27.5804 6.25612 25.3448C6.1131 23.0358 6.1131 16.1149 6.25612 13.8085C6.37993 11.5686 6.93471 9.58383 8.73725 7.95302C10.5398 6.32222 12.7176 5.80658 15.1681 5.69996C17.7029 5.56974 25.3028 5.56974 27.8377 5.69996C30.2977 5.8127 32.4765 6.32484 34.2685 7.95914C36.0605 9.59344 36.6325 11.5791 36.7496 13.819C36.8927 16.1193 36.8927 23.034 36.7496 25.3448Z" fill="#F5F5F5"/>
</svg>
